<?xml version="1.0" standalone="no"?>
<!DOCTYPE svg PUBLIC "-//W3C//DTD SVG 20010904//EN"
 "http://www.w3.org/TR/2001/REC-SVG-20010904/DTD/svg10.dtd">
<svg version="1.0" xmlns="http://www.w3.org/2000/svg"
 width="305.000000pt" height="348.000000pt" viewBox="0 0 305.000000 348.000000"
 preserveAspectRatio="xMidYMid meet">
<metadata>
Created by potrace 1.16, written by Peter Selinger 2001-2019
</metadata>
<g transform="translate(0.000000,348.000000) scale(0.100000,-0.100000)"
fill="#000000" stroke="none">
<path d="M270 3276 c-90 -24 -172 -95 -214 -185 l-21 -46 0 -1355 0 -1355 22
-47 c30 -66 96 -133 162 -165 l56 -28 1225 0 1225 0 47 22 c66 30 133 96 165
162 l28 56 0 1355 0 1355 -22 47 c-30 66 -96 133 -162 165 l-56 28 -484 3
c-443 3 -485 1 -502 -14 -20 -18 -25 -59 -11 -82 18 -28 87 -32 520 -32 349 0
449 -3 475 -13 39 -17 104 -87 114 -124 10 -37 10 -2629 0 -2666 -10 -37 -75
-107 -114 -124 -48 -19 -2398 -19 -2446 0 -39 17 -104 87 -114 124 -10 37 -10
2629 0 2666 8 30 68 101 101 120 15 9 155 13 502 17 456 5 483 6 503 24 26 24
27 60 1 86 -19 19 -33 20 -487 19 -337 0 -481 -4 -513 -13z"/>
<path d="M695 2966 c-62 -28 -111 -77 -139 -136 -21 -45 -21 -51 -21 -810 l0
-765 24 -48 c13 -26 44 -65 69 -87 82 -73 57 -71 898 -68 l749 3 41 22 c65 35
100 69 128 125 l26 52 0 765 0 766 -24 50 c-29 60 -76 107 -136 134 -44 20
-62 21 -805 21 l-760 0 -50 -24z m1571 -117 c31 -15 48 -32 63 -63 21 -42 21
-56 21 -767 0 -807 3 -768 -69 -816 l-34 -23 -749 0 -749 0 -42 39 -42 40 -3
753 c-2 741 -2 754 18 786 12 19 38 41 63 52 40 19 74 20 761 20 706 0 720 0
762 -21z"/>
<path d="M1885 2464 c-16 -8 -147 -132 -290 -274 -143 -143 -264 -260 -269
-260 -6 0 -51 40 -101 90 -98 95 -123 110 -187 110 -124 0 -211 -117 -178
-240 10 -38 37 -70 173 -207 97 -98 177 -171 202 -183 50 -24 121 -26 173 -5
47 20 694 663 724 719 45 86 7 200 -82 247 -43 23 -124 25 -165 3z m128 -135
c11 -16 17 -34 13 -45 -3 -11 -156 -169 -339 -352 -284 -283 -337 -332 -362
-332 -24 0 -56 27 -187 158 -150 149 -159 159 -156 192 2 27 9 38 30 48 39 18
54 8 184 -119 78 -76 118 -109 134 -109 18 0 100 76 321 296 319 317 320 318
362 263z"/>
<path d="M427 878 c-12 -13 -58 -117 -101 -232 -75 -197 -79 -210 -65 -235 12
-21 22 -26 54 -26 37 0 41 3 60 43 l19 42 78 0 78 0 15 -37 c18 -43 30 -53 66
-53 30 0 59 28 59 56 0 33 -158 435 -177 450 -27 20 -61 17 -86 -8z"/>
<path d="M2060 860 c-19 -19 -20 -33 -20 -234 0 -235 3 -246 59 -246 44 0 61
28 61 97 l0 60 56 6 c96 10 156 75 156 169 0 64 -37 122 -95 149 -61 27 -189
27 -217 -1z"/>
<path d="M842 848 c-56 -27 -109 -90 -127 -152 -19 -62 -19 -80 0 -142 49
-166 267 -232 388 -117 32 31 36 72 9 96 -26 24 -63 21 -102 -8 -39 -29 -69
-31 -110 -10 -76 39 -94 127 -39 189 39 45 84 55 145 31 54 -20 91 -14 106 20
40 88 -148 152 -270 93z"/>
<path d="M1313 849 c-59 -29 -109 -88 -127 -150 -20 -66 -20 -82 0 -148 30
-102 123 -171 231 -171 125 1 228 96 165 153 -26 24 -63 21 -103 -9 -48 -36
-102 -29 -146 20 -46 50 -46 110 -2 160 39 45 84 55 145 31 54 -20 91 -14 106
20 40 87 -148 152 -269 94z"/>
<path d="M1697 852 c-15 -16 -17 -47 -17 -230 0 -180 2 -213 16 -227 13 -13
36 -15 127 -13 111 3 112 3 125 30 10 22 10 32 1 50 -17 33 -28 38 -91 38 -58
0 -58 0 -58 30 0 29 1 30 48 30 62 0 92 21 92 64 0 44 -20 58 -86 64 -52 4
-54 6 -54 33 0 28 1 28 67 31 63 3 69 5 81 30 10 22 10 32 1 50 -18 35 -27 38
-135 38 -85 0 -103 -3 -117 -18z"/>
<path d="M2436 848 c-9 -12 -16 -30 -16 -40 0 -28 37 -58 70 -58 l30 0 0 -157
c0 -185 7 -206 62 -211 61 -5 68 15 68 205 l0 163 30 0 c58 0 92 67 52 103
-15 14 -42 17 -150 17 -124 0 -132 -1 -146 -22z"/>
</g>
</svg>
