<?xml version="1.0" standalone="no"?>
<!DOCTYPE svg PUBLIC "-//W3C//DTD SVG 20010904//EN"
 "http://www.w3.org/TR/2001/REC-SVG-20010904/DTD/svg10.dtd">
<svg version="1.0" xmlns="http://www.w3.org/2000/svg"
 width="326.000000pt" height="345.000000pt" viewBox="0 0 326.000000 345.000000"
 preserveAspectRatio="xMidYMid meet">
<metadata>
Created by potrace 1.16, written by Peter Selinger 2001-2019
</metadata>
<g transform="translate(0.000000,345.000000) scale(0.100000,-0.100000)"
fill="#000000" stroke="none">
<path d="M1255 3204 c-88 -13 -275 -39 -415 -59 -166 -23 -259 -40 -269 -49
-12 -13 -9 -52 23 -288 20 -150 39 -285 42 -300 l6 -28 -111 0 c-104 0 -111
-1 -125 -22 -11 -18 -27 -254 -70 -1053 -31 -566 -58 -1049 -61 -1073 -4 -33
0 -47 15 -62 20 -20 37 -20 1320 -20 l1300 0 21 21 c17 17 19 28 15 72 -3 29
-31 513 -62 1077 -47 858 -59 1028 -72 1043 -12 14 -33 17 -119 17 l-104 0 6
33 c36 208 65 416 60 434 -3 12 -13 24 -23 27 -26 8 -828 136 -854 136 -33 0
-45 -29 -63 -147 -10 -65 -22 -124 -27 -130 -13 -16 -134 -17 -144 -2 -5 9
-52 325 -54 361 0 15 -33 38 -53 37 -12 -1 -94 -12 -182 -25z m166 -219 c11
-75 18 -143 15 -151 -4 -11 -34 -14 -145 -14 -128 0 -141 -2 -151 -19 -5 -11
-10 -86 -10 -171 l0 -150 -197 2 -197 3 -33 230 c-17 127 -33 248 -35 270 l-3
40 100 13 c55 8 219 31 365 51 146 21 266 36 268 35 2 -1 12 -64 23 -139z
m792 -39 c186 -29 339 -55 341 -57 3 -4 -49 -343 -59 -386 -5 -23 -6 -23 -215
-23 l-210 0 0 158 c0 110 -4 162 -12 170 -8 8 -53 12 -134 12 -68 0 -125 3
-127 8 -3 4 1 45 9 92 7 47 14 86 14 87 0 1 12 0 28 -3 15 -2 179 -29 365 -58z
m-238 -341 l0 -120 -372 -3 -373 -2 0 125 0 125 373 -2 372 -3 0 -120z m767
-360 c4 -71 11 -215 17 -320 6 -104 18 -311 26 -460 8 -148 19 -346 25 -440 5
-93 11 -204 12 -245 l3 -75 -1215 0 -1215 0 2 65 c2 36 7 146 13 245 5 99 17
304 25 455 8 151 19 349 25 440 5 91 12 230 16 310 4 80 9 148 11 153 2 4 509
6 1126 5 l1122 -3 7 -130z m92 -1677 c3 -24 7 -82 9 -130 l5 -88 -1239 0
-1238 0 5 88 c3 48 7 106 10 130 l5 42 1219 0 1219 0 5 -42z"/>
<path d="M1135 2236 c-75 -34 -120 -128 -97 -205 15 -50 52 -94 92 -111 l30
-12 0 -147 c0 -80 5 -166 11 -190 40 -175 190 -313 373 -343 222 -37 454 120
505 343 6 24 11 109 11 189 l0 145 37 20 c70 38 106 122 84 196 -35 115 -161
165 -259 102 -117 -76 -105 -252 20 -304 l30 -12 -4 -151 c-4 -125 -9 -161
-27 -208 -29 -76 -106 -159 -179 -195 -50 -25 -68 -28 -152 -28 -83 0 -102 3
-150 27 -30 15 -75 46 -99 70 -84 84 -111 172 -111 369 l0 117 29 12 c36 14
76 56 90 93 54 142 -96 284 -234 223z m128 -105 c45 -49 10 -131 -55 -131 -82
0 -110 113 -36 145 35 14 71 9 91 -14z m817 -11 c42 -79 -58 -162 -120 -100
-42 42 -21 123 34 132 31 5 75 -11 86 -32z"/>
</g>
</svg>
