<?xml version="1.0" standalone="no"?>
<!DOCTYPE svg PUBLIC "-//W3C//DTD SVG 20010904//EN"
 "http://www.w3.org/TR/2001/REC-SVG-20010904/DTD/svg10.dtd">
<svg version="1.0" xmlns="http://www.w3.org/2000/svg"
 width="342.000000pt" height="298.000000pt" viewBox="0 0 342.000000 298.000000"
 preserveAspectRatio="xMidYMid meet">
<metadata>
Created by potrace 1.16, written by Peter Selinger 2001-2019
</metadata>
<g transform="translate(0.000000,298.000000) scale(0.100000,-0.100000)"
fill="#000000" stroke="none">
<path d="M1050 2850 c-133 -13 -248 -51 -376 -125 -98 -57 -256 -217 -313
-318 -171 -304 -158 -665 33 -950 80 -119 1321 -1359 1352 -1351 12 3 311 297
666 652 679 681 700 704 759 852 132 332 67 700 -170 952 -160 171 -353 267
-579 288 -94 8 -223 -2 -315 -26 -85 -21 -229 -91 -304 -148 l-63 -46 -62 46
c-181 133 -406 195 -628 174z m290 -122 c126 -31 277 -115 349 -192 32 -34 70
-34 102 0 38 41 140 111 210 144 208 97 469 97 676 0 461 -215 606 -801 300
-1205 -25 -33 -102 -116 -171 -185 l-126 -125 0 207 c0 174 -3 216 -19 267
-39 125 -120 218 -239 274 -66 32 -69 32 -245 35 -204 4 -244 -4 -296 -63 -42
-48 -51 -91 -51 -238 l0 -128 -76 -99 c-89 -116 -92 -134 -24 -166 59 -28 64
-36 78 -114 6 -36 20 -76 30 -90 28 -37 80 -69 124 -76 l38 -7 0 -241 0 -241
-130 -130 -130 -130 -155 155 -155 155 0 275 c0 300 -3 320 -56 320 -21 0 -24
4 -24 39 l0 38 74 6 c83 6 122 22 159 67 33 38 47 88 47 164 0 52 4 64 33 100
18 23 37 47 41 54 8 14 -22 68 -54 97 -18 16 -20 30 -20 155 0 113 3 140 16
151 33 27 58 93 58 151 -1 80 -40 142 -113 180 l-53 28 -242 0 c-322 0 -389
-18 -498 -132 -94 -98 -122 -198 -123 -433 0 -183 12 -239 70 -324 l35 -51 0
-117 0 -118 -116 115 c-141 140 -196 211 -245 315 -59 126 -73 191 -73 340 0
105 4 145 22 208 78 273 275 477 539 557 140 42 287 45 433 8z m223 -498 c41
-36 52 -78 33 -125 -23 -55 -45 -62 -207 -68 -151 -5 -213 -20 -262 -65 -35
-31 -69 -102 -76 -155 l-6 -52 -41 -5 c-87 -12 -131 -69 -119 -154 13 -101 12
-111 -12 -114 -52 -8 -103 132 -103 284 0 237 47 366 157 431 81 47 112 52
365 52 l237 1 34 -30z m-33 -422 c4 -111 8 -130 28 -157 12 -17 22 -36 22 -42
0 -7 -10 -23 -22 -37 -20 -20 -24 -38 -28 -118 -8 -129 -16 -137 -147 -142
-125 -5 -170 7 -233 63 -54 48 -61 51 -89 35 -47 -25 -28 -79 46 -132 55 -39
95 -58 124 -58 18 0 20 -6 17 -42 l-3 -43 -182 -3 -183 -2 0 130 c0 123 1 130
20 130 30 0 88 57 99 97 8 26 6 47 -5 80 -21 61 -16 87 17 91 20 2 32 -4 49
-27 24 -35 72 -43 88 -15 5 9 7 58 4 108 -9 179 37 216 268 213 l105 -2 5
-127z m852 15 c66 -30 133 -96 165 -162 l28 -56 3 -269 3 -269 -98 -99 -98
-98 -5 242 c-5 227 -7 246 -28 293 -41 88 -104 141 -210 174 -70 21 -183 106
-202 151 -15 36 -4 76 28 101 25 19 37 20 197 17 149 -3 176 -6 217 -25z
m-410 -268 c41 -35 95 -61 153 -76 61 -15 129 -78 144 -134 6 -22 11 -75 11
-118 l0 -78 -56 -26 c-77 -35 -233 -61 -269 -45 -29 14 -55 66 -55 112 0 39
-20 77 -58 114 l-31 28 49 63 c56 70 70 101 70 151 0 19 3 34 6 34 3 0 20 -11
36 -25z m-642 -722 l0 -198 -195 195 c-107 107 -195 196 -195 197 0 2 88 3
195 3 l195 0 0 -197z m950 64 l0 -132 -90 -90 -90 -90 0 198 c0 150 3 198 13
201 6 2 41 13 77 24 36 11 71 21 78 21 9 1 12 -32 12 -132z"/>
</g>
</svg>
