<?xml version="1.0" standalone="no"?>
<!DOCTYPE svg PUBLIC "-//W3C//DTD SVG 20010904//EN"
 "http://www.w3.org/TR/2001/REC-SVG-20010904/DTD/svg10.dtd">
<svg version="1.0" xmlns="http://www.w3.org/2000/svg"
 width="358.000000pt" height="412.000000pt" viewBox="0 0 358.000000 412.000000"
 preserveAspectRatio="xMidYMid meet">
<metadata>
Created by potrace 1.16, written by Peter Selinger 2001-2019
</metadata>
<g transform="translate(0.000000,412.000000) scale(0.100000,-0.100000)"
fill="#000000" stroke="none">
<path d="M1717 3489 c-9 -5 -24 -24 -33 -41 -24 -47 -103 -127 -147 -149 -21
-11 -43 -31 -49 -44 -16 -35 2 -70 49 -94 41 -20 110 -92 155 -160 22 -33 34
-41 58 -41 24 0 36 8 58 41 45 68 114 140 155 160 21 11 43 31 49 44 16 35 -2
70 -49 94 -44 22 -123 102 -147 149 -24 47 -62 63 -99 41z m43 -129 c0 -5 27
-37 61 -71 l61 -61 -44 -42 c-24 -22 -54 -54 -66 -70 l-22 -29 -22 29 c-12 16
-42 48 -66 70 l-44 42 61 61 c34 34 61 66 61 71 0 6 5 10 10 10 6 0 10 -4 10
-10z"/>
<path d="M875 3387 c-14 -22 -13 -28 9 -78 29 -66 47 -83 80 -75 35 9 40 38
16 93 -37 84 -75 106 -105 60z"/>
<path d="M2557 3392 c-27 -29 -59 -111 -52 -132 8 -25 50 -36 71 -19 9 7 27
38 40 68 22 50 23 56 9 78 -18 27 -46 30 -68 5z"/>
<path d="M605 3164 c-26 -26 -14 -56 40 -96 52 -39 82 -47 103 -26 23 23 13
55 -25 86 -71 55 -92 61 -118 36z"/>
<path d="M2799 3142 c-56 -39 -71 -70 -49 -98 20 -23 52 -16 105 24 54 40 66
70 40 96 -24 23 -35 20 -96 -22z"/>
<path d="M1059 3005 c-30 -16 -18 8 -285 -615 -102 -239 -192 -460 -200 -490
-20 -78 -18 -195 6 -272 37 -120 136 -242 238 -291 23 -12 41 -26 39 -32 -2
-5 -41 -125 -87 -265 -45 -140 -87 -258 -92 -261 -6 -4 -85 -10 -177 -14 -200
-8 -232 -16 -277 -69 -38 -44 -44 -88 -17 -118 15 -17 788 -278 824 -278 55 0
84 83 54 158 -14 33 -46 66 -161 162 -79 66 -144 127 -144 136 0 8 38 131 85
272 l84 257 91 -3 c145 -5 252 34 359 134 110 101 105 88 307 952 21 89 41
162 44 162 3 0 23 -73 44 -162 202 -864 197 -851 307 -952 107 -100 214 -139
359 -134 l91 3 84 -257 c47 -141 85 -264 85 -272 0 -9 -65 -70 -144 -136 -121
-101 -147 -128 -162 -166 -23 -60 -11 -122 28 -143 25 -15 34 -13 128 17 106
35 130 55 111 91 -17 30 -37 32 -106 9 -117 -39 -103 -16 80 136 159 133 124
122 365 106 146 -10 180 -16 180 -28 0 -4 -85 -36 -189 -70 -104 -35 -195 -69
-201 -77 -18 -21 -4 -64 23 -70 27 -7 431 127 458 151 30 27 24 74 -16 121
-44 51 -79 60 -265 68 -80 3 -157 8 -171 11 -24 4 -31 22 -108 261 -46 142
-85 262 -87 268 -3 6 15 20 38 32 102 49 201 171 238 291 26 84 27 209 2 289
-17 53 -416 993 -448 1054 -7 14 -26 32 -42 38 -27 11 -54 4 -288 -73 -143
-46 -289 -95 -326 -107 l-67 -22 -308 101 c-169 55 -319 103 -333 106 -14 3
-37 -1 -51 -9z m349 -184 c163 -53 282 -97 282 -104 0 -7 -41 -182 -90 -390
-50 -208 -90 -380 -90 -381 0 -2 -43 -6 -96 -10 -109 -7 -134 -17 -134 -49 0
-39 18 -47 112 -47 48 0 88 -4 88 -9 0 -39 -48 -207 -73 -254 -64 -123 -208
-207 -352 -207 -246 0 -439 227 -398 467 6 36 13 66 15 68 2 1 50 -13 107 -31
72 -24 139 -38 222 -46 110 -11 119 -11 139 7 24 21 26 48 5 65 -8 6 -59 16
-115 20 -108 10 -210 32 -277 61 l-43 18 34 78 c18 43 106 250 196 461 91 212
168 381 174 379 6 -2 138 -45 294 -96z m1184 -358 c108 -252 193 -461 189
-466 -4 -4 -33 -16 -64 -27 -149 -53 -283 -62 -569 -39 l-157 13 -35 145 c-98
409 -148 632 -143 637 4 4 561 190 578 193 3 1 94 -205 201 -456z m247 -603
c15 -69 14 -115 -4 -183 -39 -151 -141 -254 -290 -293 -174 -47 -370 37 -452
193 -25 48 -73 215 -73 255 0 8 39 8 133 2 292 -20 448 -7 597 49 36 14 68 25
72 26 3 0 11 -22 17 -49z m-1994 -1296 c138 -115 163 -140 151 -152 -6 -5
-683 213 -695 224 -21 19 130 38 339 43 l66 1 139 -116z"/>
<path d="M482 2827 c-20 -23 -11 -60 18 -74 36 -18 125 -17 144 3 19 19 20 35
3 57 -18 26 -147 36 -165 14z"/>
<path d="M2890 2833 c-45 -8 -63 -49 -34 -77 19 -20 108 -21 144 -3 28 14 38
51 20 73 -12 14 -72 17 -130 7z"/>
</g>
</svg>
