<?xml version="1.0" standalone="no"?>
<!DOCTYPE svg PUBLIC "-//W3C//DTD SVG 20010904//EN"
 "http://www.w3.org/TR/2001/REC-SVG-20010904/DTD/svg10.dtd">
<svg version="1.0" xmlns="http://www.w3.org/2000/svg"
 width="232.000000pt" height="252.000000pt" viewBox="0 0 232.000000 252.000000"
 preserveAspectRatio="xMidYMid meet">
<metadata>
Created by potrace 1.16, written by Peter Selinger 2001-2019
</metadata>
<g transform="translate(0.000000,252.000000) scale(0.100000,-0.100000)"
fill="#000000" stroke="none">
<path d="M1060 2389 c-90 -36 -125 -141 -78 -237 25 -52 126 -162 190 -209
l44 -31 64 53 c138 115 206 231 182 313 -7 22 -21 51 -32 64 -40 52 -135 74
-189 44 -21 -11 -30 -11 -57 0 -38 16 -88 17 -124 3z m125 -99 l28 -29 27 29
c37 40 90 41 127 4 21 -21 25 -32 20 -65 -6 -47 -65 -130 -132 -185 l-46 -37
-65 64 c-70 69 -119 153 -108 185 25 69 99 86 149 34z"/>
<path d="M530 2046 c-67 -19 -126 -52 -169 -95 -35 -35 -314 -522 -343 -598
-18 -48 1 -77 71 -113 61 -30 86 -35 116 -24 8 4 56 76 106 160 50 85 93 154
96 154 10 0 -6 -151 -28 -267 -22 -119 -21 -143 8 -143 41 -1 42 -8 22 -200
-10 -102 -19 -193 -19 -203 0 -15 -7 -16 -53 -11 -64 8 -109 -11 -132 -56 -35
-68 -4 -144 94 -233 l53 -47 -7 -85 c-10 -128 -2 -140 111 -156 71 -10 107 -1
124 31 9 18 110 540 110 572 0 38 14 -28 60 -277 29 -154 56 -288 61 -297 17
-32 46 -39 120 -32 91 9 119 29 119 88 0 24 -7 106 -15 182 -8 77 -26 254 -40
394 -14 140 -27 270 -29 288 -4 30 -2 33 25 39 17 3 33 12 36 20 3 8 -2 51
-10 96 -22 111 -39 250 -35 279 2 18 20 -6 78 -107 82 -142 126 -195 161 -195
29 0 145 65 153 86 3 8 6 25 6 37 0 26 -294 555 -336 606 -37 43 -115 88 -188
107 -64 17 -264 17 -326 0z m301 -73 c7 -7 -107 -232 -131 -256 -7 -8 -140
226 -141 248 0 6 15 13 33 17 43 9 228 2 239 -9z m-257 -208 c50 -92 98 -173
108 -179 12 -7 21 -6 32 3 8 7 56 89 106 182 50 93 96 169 101 169 32 0 105
-106 234 -339 77 -139 141 -256 143 -260 5 -14 -70 -53 -80 -43 -5 5 -65 104
-132 218 -71 121 -130 210 -140 212 -9 2 -23 -2 -31 -8 -28 -23 -13 -325 24
-489 10 -47 14 -44 -67 -60 -84 -17 -85 -17 -120 54 -27 54 -36 65 -57 65 -21
0 -30 -11 -57 -65 -36 -72 -35 -72 -133 -51 -42 8 -59 17 -58 27 1 8 10 55 18
104 9 50 19 160 22 245 5 134 4 157 -10 168 -9 8 -24 12 -33 10 -9 -2 -69 -92
-139 -211 -67 -114 -127 -213 -132 -218 -9 -9 -60 8 -82 27 -1 1 63 123 145
271 141 257 206 351 237 340 6 -2 51 -79 101 -172z m159 -665 c14 -27 22 -31
42 -26 14 4 45 9 70 13 36 4 45 3 45 -9 0 -8 16 -172 35 -364 56 -541 53 -503
37 -509 -7 -3 -30 -5 -50 -5 l-37 0 -69 378 c-38 207 -73 387 -77 400 -9 23
-52 31 -64 12 -3 -6 -38 -184 -77 -398 -38 -213 -71 -388 -73 -390 -2 -2 -24
0 -50 4 l-48 7 7 96 c8 95 8 96 51 142 53 57 75 98 75 141 0 40 -31 94 -59
103 -26 8 -26 13 -4 228 19 188 12 177 102 156 51 -11 65 -4 87 50 17 40 19
38 57 -29z m-385 -494 l24 -21 19 23 c13 17 27 22 46 20 23 -2 29 -8 31 -34 3
-26 -6 -41 -47 -85 l-51 -54 -50 52 c-54 56 -67 103 -33 122 20 10 27 8 61
-23z"/>
<path d="M1447 2043 c-23 -26 -71 -255 -71 -343 -1 -71 2 -80 52 -179 52 -104
52 -104 52 -200 l0 -95 -94 -211 c-142 -319 -207 -521 -210 -656 -1 -56 3 -71
26 -106 42 -64 126 -101 258 -113 58 -5 130 -16 160 -25 67 -20 223 -15 285 8
22 9 78 18 125 20 47 3 107 13 134 23 65 23 132 89 142 141 19 99 -62 385
-190 666 l-73 162 52 55 c71 75 89 112 82 169 -7 59 -52 101 -109 101 -21 0
-38 2 -38 5 0 3 16 37 35 76 42 83 57 149 45 204 -5 22 -20 93 -33 158 -29
137 -42 157 -102 157 -58 0 -75 -22 -85 -111 -8 -76 -28 -115 -71 -136 -34
-18 -124 -16 -160 3 -40 20 -68 84 -69 152 0 68 -22 92 -83 92 -29 0 -49 -6
-60 -17z m103 -221 c32 -57 92 -92 169 -99 140 -13 233 67 251 216 5 42 8 50
12 31 45 -188 59 -266 53 -298 -4 -20 -27 -75 -52 -124 -35 -68 -50 -88 -67
-88 -11 0 -32 -9 -46 -20 -22 -17 -42 -20 -172 -20 -118 0 -148 3 -148 14 0 7
-23 59 -51 115 -58 118 -62 150 -30 276 10 44 23 100 27 125 l8 45 11 -65 c6
-36 22 -85 35 -108z m425 -458 l25 -27 25 27 c27 29 29 30 56 16 35 -19 24
-63 -31 -122 l-50 -53 -50 53 c-54 58 -66 102 -32 121 25 15 30 14 57 -15z
m-151 -48 c3 -13 9 -31 12 -40 5 -14 -10 -16 -135 -16 l-141 0 0 40 0 40 129
0 c128 0 129 0 135 -24z m109 -154 c28 -29 155 -301 208 -445 44 -119 89 -300
89 -359 0 -45 -4 -54 -34 -83 -38 -35 -99 -55 -170 -55 -41 0 -46 2 -46 23 -1
114 -66 645 -82 664 -6 7 -19 13 -29 13 -34 0 -38 -30 -23 -141 26 -181 54
-452 54 -515 0 -50 -3 -63 -17 -69 -35 -14 -200 -18 -252 -5 -48 11 -51 14
-51 43 0 57 20 258 46 461 22 175 24 201 11 213 -18 18 -54 9 -61 -15 -8 -26
-54 -406 -61 -497 -3 -44 -8 -102 -12 -129 l-5 -49 -67 5 c-72 5 -140 34 -165
70 -21 29 -20 74 4 181 36 163 77 271 249 650 l30 67 179 0 178 0 27 -28z"/>
</g>
</svg>
