<?xml version="1.0" standalone="no"?>
<!DOCTYPE svg PUBLIC "-//W3C//DTD SVG 20010904//EN"
 "http://www.w3.org/TR/2001/REC-SVG-20010904/DTD/svg10.dtd">
<svg version="1.0" xmlns="http://www.w3.org/2000/svg"
 width="257.000000pt" height="323.000000pt" viewBox="0 0 257.000000 323.000000"
 preserveAspectRatio="xMidYMid meet">
<metadata>
Created by potrace 1.16, written by Peter Selinger 2001-2019
</metadata>
<g transform="translate(0.000000,323.000000) scale(0.100000,-0.100000)"
fill="#000000" stroke="none">
<path d="M1412 3081 c-69 -24 -136 -89 -161 -156 l-19 -50 -111 -5 c-121 -5
-131 -10 -131 -62 l0 -28 -154 0 c-149 0 -155 -1 -170 -22 -13 -19 -16 -57
-16 -220 l0 -198 -52 -26 c-447 -226 -652 -764 -468 -1230 90 -225 276 -428
478 -518 l42 -19 0 -201 c0 -166 3 -205 16 -224 l15 -22 853 0 c814 0 854 1
869 18 16 17 17 123 17 1325 0 1174 -2 1307 -16 1321 -13 13 -43 16 -170 16
l-154 0 0 33 c0 52 -12 57 -131 57 l-107 0 -13 38 c-27 83 -91 147 -176 178
-55 19 -178 17 -241 -5z m215 -92 c36 -13 89 -64 102 -98 5 -14 12 -43 16 -63
3 -22 14 -42 25 -48 10 -5 62 -10 114 -10 l96 0 0 -60 0 -60 -445 0 -445 0 0
60 0 60 98 0 c113 0 142 12 142 61 0 65 59 142 122 161 37 10 145 9 175 -3z
m-637 -358 c0 -87 -37 -81 549 -81 389 0 520 3 529 12 7 7 12 36 12 65 l0 53
120 0 120 0 0 -1240 0 -1240 -785 0 -785 0 0 150 c0 86 4 150 9 150 5 0 42 -7
82 -15 40 -9 113 -18 162 -22 l89 -6 465 466 466 465 -6 91 c-19 264 -111 474
-287 652 -123 126 -273 211 -458 261 -103 28 -343 30 -445 5 -38 -9 -70 -17
-73 -17 -2 0 -4 68 -4 150 l0 150 120 0 120 0 0 -49z m265 -342 c355 -87 620
-397 660 -771 l7 -68 -29 0 c-15 0 -44 -3 -64 -6 l-35 -6 -12 89 c-20 148 -81
291 -167 392 -386 453 -1094 316 -1286 -249 -29 -86 -32 -106 -33 -220 0 -149
14 -215 78 -345 76 -154 218 -286 380 -354 67 -28 215 -61 272 -61 27 0 29 -8
13 -80 l-11 -50 -51 5 c-104 12 -199 35 -273 66 -252 105 -443 326 -516 597
-30 111 -30 316 1 427 95 353 379 604 741 656 79 11 232 1 325 -22z m-80 -214
c227 -48 432 -241 489 -463 9 -34 18 -92 19 -128 l2 -65 -84 -34 c-47 -19
-117 -56 -157 -83 l-72 -49 -6 36 c-5 34 -2 40 74 116 88 88 109 131 90 181
-26 68 -60 85 -203 104 l-87 12 -53 101 c-58 113 -88 142 -147 142 -59 0 -89
-29 -147 -142 l-53 -101 -87 -12 c-145 -19 -183 -39 -203 -108 -15 -54 4 -91
91 -178 l80 -81 -15 -83 c-28 -148 -17 -203 48 -234 53 -25 77 -20 186 36
l100 52 65 -32 c35 -19 67 -37 70 -42 3 -5 -1 -20 -10 -33 -9 -14 -31 -62 -50
-108 -32 -79 -36 -84 -66 -87 -18 -2 -62 2 -98 8 -263 44 -456 211 -532 460
-30 95 -32 252 -5 350 46 170 179 332 336 409 139 68 279 87 425 56z m-69
-331 c64 -125 81 -137 214 -154 56 -8 105 -19 111 -26 9 -10 -9 -34 -74 -102
-47 -49 -89 -101 -92 -114 -4 -14 -2 -52 4 -84 15 -81 13 -105 -10 -133 l-20
-25 -85 42 c-46 23 -98 42 -115 42 -17 0 -74 -22 -131 -51 -73 -38 -102 -49
-111 -40 -8 8 -6 41 7 125 15 92 16 118 6 137 -7 13 -49 61 -92 107 -64 66
-78 85 -69 96 7 8 52 19 112 26 131 16 151 30 209 146 55 110 59 116 73 112 7
-2 35 -49 63 -104z m389 -744 c-186 -186 -341 -337 -343 -335 -10 10 53 186
94 263 100 190 237 311 426 376 197 68 201 74 -177 -304z"/>
</g>
</svg>
