<?xml version="1.0" standalone="no"?>
<!DOCTYPE svg PUBLIC "-//W3C//DTD SVG 20010904//EN"
 "http://www.w3.org/TR/2001/REC-SVG-20010904/DTD/svg10.dtd">
<svg version="1.0" xmlns="http://www.w3.org/2000/svg"
 width="372.000000pt" height="392.000000pt" viewBox="0 0 372.000000 392.000000"
 preserveAspectRatio="xMidYMid meet">
<metadata>
Created by potrace 1.16, written by Peter Selinger 2001-2019
</metadata>
<g transform="translate(0.000000,392.000000) scale(0.100000,-0.100000)"
fill="#000000" stroke="none">
<path d="M2914 3491 c-64 -29 -97 -81 -102 -155 -4 -73 15 -115 71 -160 35
-28 46 -31 107 -31 61 0 72 3 107 31 55 45 76 85 75 149 -1 82 -38 138 -114
170 -49 20 -94 19 -144 -4z m131 -104 c57 -49 20 -147 -56 -147 -43 0 -79 39
-79 85 0 74 80 110 135 62z"/>
<path d="M897 3466 c-8 -8 -17 -35 -20 -60 -16 -114 -96 -195 -207 -209 -86
-11 -103 -83 -24 -100 88 -19 111 -28 147 -58 45 -37 75 -93 84 -155 3 -25 12
-52 20 -60 32 -31 83 -5 83 43 0 107 106 222 205 223 40 0 75 25 75 54 0 32
-21 47 -72 53 -113 15 -208 117 -208 224 0 47 -52 75 -83 45z m85 -371 c-26
-27 -47 -51 -48 -52 0 -2 -25 21 -55 49 l-54 52 50 50 50 51 52 -50 52 -50
-47 -50z"/>
<path d="M2654 3132 c-59 -43 -139 -135 -168 -194 -42 -84 -30 -144 26 -136
22 3 32 17 64 93 10 22 53 74 96 117 73 73 88 98 70 124 -17 26 -49 24 -88 -4z"/>
<path d="M312 2520 c-12 -5 -25 -16 -28 -25 -4 -8 22 -144 57 -300 l63 -285
-63 -285 c-35 -156 -61 -292 -57 -300 3 -8 17 -20 31 -25 36 -14 3094 -14
3130 0 14 5 28 17 31 25 4 8 -22 144 -57 300 l-63 285 63 285 c35 156 61 292
57 300 -3 8 -17 20 -31 25 -34 13 -3101 12 -3133 0z m3050 -95 c3 -3 -19 -112
-48 -243 -30 -130 -54 -253 -54 -272 0 -19 24 -142 54 -272 29 -131 51 -240
48 -243 -7 -7 -2957 -7 -2964 0 -3 3 19 112 48 243 30 130 54 253 54 272 0 19
-24 142 -54 272 -29 131 -51 240 -48 243 7 7 2957 7 2964 0z"/>
<path d="M751 2231 c-20 -20 -21 -29 -21 -321 0 -287 1 -301 20 -320 25 -25
42 -25 63 -2 14 15 17 40 17 124 l0 106 65 4 c118 7 195 90 195 210 0 132 -82
207 -236 216 -73 4 -84 2 -103 -17z m173 -95 c46 -19 66 -52 66 -107 0 -40 -5
-53 -31 -78 -26 -26 -38 -31 -80 -31 l-49 0 0 115 0 115 30 0 c17 0 46 -6 64
-14z"/>
<path d="M1315 2234 c-48 -18 -81 -47 -106 -96 -17 -34 -19 -61 -19 -287 0
-214 2 -252 16 -265 21 -21 40 -20 64 4 17 17 20 33 20 125 l0 106 93 -3 92
-3 5 -113 c4 -85 9 -115 20 -122 23 -15 38 -12 61 11 20 20 20 29 17 267 -3
274 -5 281 -72 340 -35 30 -91 53 -131 51 -11 0 -38 -7 -60 -15z m135 -119
c22 -22 25 -36 29 -110 l3 -85 -96 0 -96 0 0 81 c0 89 8 112 48 134 35 20 80
11 112 -20z"/>
<path d="M1733 2235 c-23 -16 -23 -16 -23 -325 l0 -310 25 -16 c23 -15 27 -15
50 0 24 16 25 20 25 127 l0 110 46 -3 46 -3 41 -113 c43 -123 63 -146 106
-123 30 17 27 49 -18 174 l-40 107 24 26 c73 78 74 215 2 292 -41 44 -96 65
-182 69 -63 4 -85 1 -102 -12z m170 -99 c41 -17 67 -55 67 -100 0 -75 -42
-116 -120 -116 l-40 0 0 115 0 115 30 0 c17 0 45 -6 63 -14z"/>
<path d="M2118 2239 c-21 -12 -24 -62 -5 -77 7 -6 44 -12 82 -14 l70 -3 3
-277 c2 -267 3 -278 23 -288 27 -15 58 -3 70 27 5 13 9 141 9 284 l0 259 69 0
c61 0 72 3 85 22 20 29 20 34 -4 58 -19 19 -33 20 -202 20 -106 0 -190 -5
-200 -11z"/>
<path d="M2616 2234 c-13 -12 -16 -39 -16 -133 0 -147 17 -189 98 -236 l51
-30 1 -117 c0 -114 1 -118 25 -134 23 -15 27 -15 50 0 24 16 25 20 25 134 l0
117 44 24 c25 13 57 41 73 64 27 38 28 47 31 167 3 108 1 130 -13 144 -22 21
-41 20 -65 -4 -17 -17 -20 -33 -20 -125 0 -101 -1 -106 -29 -137 -24 -27 -36
-33 -71 -33 -35 0 -47 6 -71 33 -28 31 -29 36 -29 137 0 92 -3 108 -20 125
-24 24 -43 25 -64 4z"/>
<path d="M1580 1215 c-46 -21 -68 -42 -91 -87 -41 -81 -13 -185 63 -235 34
-23 52 -28 104 -28 55 0 68 4 101 31 79 63 100 149 58 238 -37 77 -153 117
-235 81z m131 -114 c38 -39 38 -74 -1 -113 -27 -26 -36 -30 -68 -25 -70 12
-97 92 -47 142 34 35 78 33 116 -4z"/>
<path d="M3126 1164 c-28 -28 -17 -51 66 -146 86 -99 96 -108 116 -108 16 0
52 36 52 53 0 8 -23 40 -51 73 -131 151 -149 163 -183 128z"/>
<path d="M2836 988 c-9 -12 -16 -35 -16 -51 0 -94 -111 -206 -205 -207 -40 0
-75 -25 -75 -54 0 -32 16 -43 77 -51 98 -13 187 -94 199 -181 10 -72 14 -83
35 -95 30 -16 69 3 69 34 0 44 30 122 61 160 37 45 88 73 152 82 52 8 77 26
77 55 0 25 -37 50 -73 50 -15 0 -44 7 -63 15 -80 33 -129 94 -146 182 -6 32
-15 64 -21 71 -15 19 -54 14 -71 -10z m89 -362 l-50 -51 -50 50 -50 50 49 51
50 50 50 -49 51 -50 -50 -51z"/>
<path d="M300 912 c-17 -14 -21 -25 -17 -44 8 -31 230 -232 262 -236 25 -3 55
21 55 46 0 23 -245 252 -269 252 -5 0 -19 -8 -31 -18z"/>
<path d="M2219 764 c-22 -27 -119 -245 -119 -269 0 -29 22 -47 52 -43 18 2 35
28 85 128 62 126 73 166 51 188 -17 17 -53 15 -69 -4z"/>
</g>
</svg>
