<?xml version="1.0" standalone="no"?>
<!DOCTYPE svg PUBLIC "-//W3C//DTD SVG 20010904//EN"
 "http://www.w3.org/TR/2001/REC-SVG-20010904/DTD/svg10.dtd">
<svg version="1.0" xmlns="http://www.w3.org/2000/svg"
 width="347.000000pt" height="311.000000pt" viewBox="0 0 347.000000 311.000000"
 preserveAspectRatio="xMidYMid meet">
<metadata>
Created by potrace 1.16, written by Peter Selinger 2001-2019
</metadata>
<g transform="translate(0.000000,311.000000) scale(0.100000,-0.100000)"
fill="#000000" stroke="none">
<path d="M453 2961 c-104 -36 -174 -104 -213 -209 -20 -53 -20 -73 -18 -1255
l3 -1202 26 -56 c34 -72 96 -134 168 -168 l56 -26 1305 0 1305 0 56 26 c72 34
134 96 168 168 l26 56 0 1215 0 1215 -26 56 c-34 72 -96 134 -168 168 l-56 26
-1290 2 c-1221 2 -1293 2 -1342 -16z m2672 -73 c60 -31 95 -67 127 -128 l23
-45 0 -1205 0 -1205 -23 -45 c-32 -61 -67 -97 -127 -128 l-50 -27 -1295 0
-1295 0 -50 27 c-60 31 -95 67 -127 128 l-23 45 0 1205 0 1205 23 45 c40 76
99 125 182 151 14 4 601 7 1305 6 l1280 -2 50 -27z"/>
<path d="M675 2518 c-3 -7 -4 -465 -3 -1018 l3 -1005 1105 0 1105 0 0 1015 0
1015 -1103 3 c-877 2 -1104 0 -1107 -10z m2155 -1008 l0 -960 -1050 0 -1050 0
0 960 0 960 1050 0 1050 0 0 -960z"/>
<path d="M1960 2211 c-129 -46 -197 -203 -141 -326 25 -55 99 -121 153 -135
94 -26 207 11 264 85 145 191 -49 456 -276 376z"/>
<path d="M1472 1713 c-174 -260 -562 -862 -562 -871 0 -6 9 -16 19 -22 27 -14
1675 -14 1702 0 10 6 19 16 19 23 0 7 -101 165 -223 352 -154 235 -229 341
-242 343 -16 2 -42 -31 -124 -158 -57 -88 -107 -160 -111 -160 -4 0 -92 130
-196 290 -127 194 -195 290 -206 290 -11 0 -40 -34 -76 -87z"/>
</g>
</svg>
