<?xml version="1.0" standalone="no"?>
<!DOCTYPE svg PUBLIC "-//W3C//DTD SVG 20010904//EN"
 "http://www.w3.org/TR/2001/REC-SVG-20010904/DTD/svg10.dtd">
<svg version="1.0" xmlns="http://www.w3.org/2000/svg"
 width="271.000000pt" height="322.000000pt" viewBox="0 0 271.000000 322.000000"
 preserveAspectRatio="xMidYMid meet">
<metadata>
Created by potrace 1.16, written by Peter Selinger 2001-2019
</metadata>
<g transform="translate(0.000000,322.000000) scale(0.100000,-0.100000)"
fill="#000000" stroke="none">
<path d="M546 3000 c-53 -14 -136 -56 -168 -87 -73 -69 -87 -184 -36 -294 29
-63 115 -155 192 -206 l49 -33 -237 0 -237 0 -24 -25 -25 -24 0 -1059 0 -1059
23 -21 23 -22 1215 0 1216 0 21 23 22 23 0 1056 c0 1024 -1 1056 -19 1079 -19
24 -23 24 -236 29 l-218 5 49 32 c64 41 155 137 184 193 35 68 39 174 10 234
-27 58 -87 109 -159 138 -77 31 -306 33 -391 4 -191 -66 -320 -181 -417 -374
l-42 -84 -42 84 c-95 189 -220 303 -406 370 -66 23 -280 34 -347 18z m271
-164 c29 -8 74 -24 100 -37 63 -30 180 -148 222 -223 38 -68 84 -186 77 -194
-11 -10 -254 28 -342 53 -227 65 -404 203 -404 313 0 36 35 69 91 87 58 18
191 18 256 1z m1304 -1 c95 -34 114 -93 59 -177 -91 -137 -337 -241 -649 -274
l-64 -6 6 33 c4 19 27 76 52 127 76 154 194 259 334 298 66 18 209 17 262 -1z
m-1133 -802 l2 -183 -385 0 -385 0 0 185 0 185 383 -2 382 -3 3 -182z m502
-758 l0 -945 -170 0 -170 0 0 945 0 945 170 0 170 0 0 -945z m930 760 l0 -185
-385 0 -385 0 0 178 c0 98 3 182 7 185 3 4 177 7 385 7 l378 0 0 -185z m-1430
-1025 l0 -680 -385 0 -385 0 0 680 0 680 385 0 385 0 0 -680z m1430 0 l0 -680
-385 0 -385 0 0 680 0 680 385 0 385 0 0 -680z"/>
</g>
</svg>
