<?xml version="1.0" standalone="no"?>
<!DOCTYPE svg PUBLIC "-//W3C//DTD SVG 20010904//EN"
 "http://www.w3.org/TR/2001/REC-SVG-20010904/DTD/svg10.dtd">
<svg version="1.0" xmlns="http://www.w3.org/2000/svg"
 width="371.000000pt" height="347.000000pt" viewBox="0 0 371.000000 347.000000"
 preserveAspectRatio="xMidYMid meet">
<metadata>
Created by potrace 1.16, written by Peter Selinger 2001-2019
</metadata>
<g transform="translate(0.000000,347.000000) scale(0.100000,-0.100000)"
fill="#000000" stroke="none">
<path d="M576 3104 c-3 -9 -6 -94 -6 -190 l0 -174 -90 0 -90 0 0 -185 0 -185
-95 0 -95 0 0 -1035 0 -1035 1600 0 1600 0 0 1035 0 1035 -95 0 -95 0 0 185 0
185 -90 0 -90 0 0 174 c0 96 -3 181 -6 190 -6 14 -123 16 -1224 16 -1101 0
-1218 -2 -1224 -16z m2264 -269 l0 -95 -1040 0 -1040 0 0 95 0 95 1040 0 1040
0 0 -95z m180 -375 l0 -90 -1220 0 -1220 0 0 90 0 90 1220 0 1220 0 0 -90z
m10 -304 c-14 -12 -146 -129 -295 -258 -148 -129 -418 -364 -599 -521 -181
-158 -332 -287 -336 -287 -3 0 -172 145 -376 323 -204 177 -474 411 -600 521
-126 109 -240 209 -254 222 l-25 24 1255 0 1255 0 -25 -24z m-2191 -481 c209
-181 380 -333 380 -336 1 -5 -667 -595 -799 -706 l-30 -25 0 727 0 727 35 -29
c19 -15 205 -176 414 -358z m2369 -698 l-3 -365 -101 86 c-343 295 -719 627
-721 636 -1 6 183 172 410 368 l412 357 3 -359 c1 -197 1 -523 0 -723z m-1625
48 c117 -102 214 -185 217 -185 3 0 101 83 217 185 l212 185 411 -357 411
-358 -625 -3 c-344 -1 -908 -1 -1253 0 l-626 3 409 358 c225 196 410 357 412
357 2 0 98 -83 215 -185z"/>
</g>
</svg>
